<svg width="28" height="28" viewBox="0 0 28 28" fill="none" xmlns="http://www.w3.org/2000/svg">
<g clip-path="url(#clip0_1927_3562)">
<path d="M15.7498 17.5V15.75H16.6248V9.625H15.7498V7.875H19.2498V9.625H18.3748V15.75H19.2498V17.5H15.7498ZM12.6873 17.5H14.4373L11.3748 7.875H8.74982L5.68994 17.5H7.43994L7.96582 15.75H12.1466L12.6873 17.5ZM8.49257 14L9.91707 9.26537L10.1411 9.26275L11.6058 14H8.49257ZM22.9397 18.375L21.3761 21.5434L17.8796 22.0509L20.4101 24.5184L19.8124 28L22.9397 26.3559L26.0669 28L25.4693 24.5175L27.9998 22.0518L24.5033 21.5434L22.9397 18.375Z" fill="black"/>
<path d="M14.875 26.25H0V0H26.25V14.875H24.5V1.75H1.75V24.5H14.875V26.25Z" fill="black"/>
</g>
<defs>
<clipPath id="clip0_1927_3562">
<rect width="28" height="28" fill="white"/>
</clipPath>
</defs>
</svg>
