<svg width="32" height="32" viewBox="0 0 32 32" fill="none" xmlns="http://www.w3.org/2000/svg">
<g clip-path="url(#clip0_1927_11297)">
<rect width="32" height="32" rx="16" fill="#C2D6FF"/>
<path d="M11.0219 11.869C11.1056 12.0799 11.2425 12.2732 11.4101 12.4488C11.8073 12.8642 12.3782 13.1787 12.8298 13.3835C12.8289 13.4063 12.8276 13.4351 12.826 13.4704C12.8132 13.7858 12.7779 14.5875 12.718 15.5777C12.608 17.3974 12.415 19.8531 12.1253 21.0946C12.1352 21.0917 12.1423 21.0894 12.1458 21.0881H12.1461C12.1461 21.0881 12.1474 21.0875 12.148 21.0875C12.1483 21.0875 12.1483 21.0872 12.1483 21.0872L12.1612 21.4754C12.1612 21.4754 15.0746 25.8688 15.0041 26.1742C14.9823 26.2682 14.7569 26.5592 14.4431 26.9211C15.5589 27.3144 16.5257 27.0807 16.5257 27.0807C16.1407 26.6467 15.8494 26.2816 15.8247 26.1742C15.7542 25.8688 18.6676 21.4754 18.6676 21.4754L18.6804 21.0872L18.7634 18.5562C19.5164 18.8091 20.3001 18.9363 21.0056 18.7857C21.3002 18.7228 21.581 18.6113 21.8403 18.4404C25.6234 15.9479 19.736 7.70508 19.736 7.70508C19.736 7.70508 19.7302 8.14326 19.2878 8.42438C19.116 8.53337 18.8785 8.61863 18.5499 8.64524C17.3745 8.74044 15.691 7.96215 14.7223 7.86695C13.7536 7.77175 13.7059 7.97818 13.7059 7.97818C13.7059 7.97818 14.389 10.2175 14.2934 10.6461C14.1982 11.075 14.0078 11.5196 14.0078 11.5196C14.0078 11.5196 13.6741 9.78862 12.8641 9.77259C12.0541 9.75689 10.5613 10.7099 11.0219 11.869Z" fill="#F3BBB0" stroke="black" stroke-width="0.259026" stroke-linecap="round" stroke-linejoin="round"/>
<path d="M11.4076 34.4473H18.9507V27.2895H11.4076V34.4473Z" fill="#BF9EF9" stroke="black" stroke-width="0.259026" stroke-linecap="round" stroke-linejoin="round"/>
<path d="M4.83189 32.8619C5.40599 33.2274 7.88604 32.843 9.18168 32.609C8.66304 32.0545 8.28095 31.6086 8.15241 31.3781C7.57127 30.3364 6.60995 28.4532 6.60995 28.4532L8.59316 27.1713L6.87024 25.6888C6.87024 25.6888 8.84319 22.9981 9.61153 22.207C9.58076 22.2154 8.83005 22.4189 7.80687 22.7138C5.68903 23.3238 2.40408 24.3233 1.92551 24.7858C1.73511 24.9698 1.55656 25.1894 1.39565 25.4147C0.952658 26.035 0.643973 26.6995 0.591404 26.787C0.519922 26.9062 4.04559 32.3616 4.83189 32.8619Z" fill="#4C70F5" stroke="black" stroke-width="0.259026" stroke-linecap="round" stroke-linejoin="round"/>
<path d="M6.6743 25.7206C6.6743 25.7206 7.45964 27.2698 7.94654 27.8025C8.43345 28.3349 6.53935 28.576 6.47011 28.8683C6.4012 29.1607 7.41732 34.0509 8.49692 34.7705C9.57651 35.4901 11.7101 33.7967 11.9053 33.5002C12.1005 33.2037 12.0957 28.3772 11.9053 28.1654C11.7149 27.9538 9.9788 25.3285 9.8307 25.3074C9.68261 25.2862 6.6743 25.7203 6.6743 25.7203V25.7206Z" fill="#2253DD"/>
<path d="M1.396 25.4138C1.72744 25.6023 2.13004 25.6811 2.51438 25.6584C3.10835 25.6234 3.6693 25.3805 4.19788 25.108C4.72646 24.8352 5.24189 24.5272 5.80766 24.3438C6.12115 24.2419 6.4465 24.1797 6.75839 24.0736C7.07028 23.9675 7.37576 23.8111 7.58796 23.5591C7.78317 23.3271 7.88543 23.002 7.80721 22.7129C5.68937 23.3229 2.40443 24.3223 1.92586 24.7849C1.73545 24.9689 1.55691 25.1885 1.396 25.4138Z" fill="#80A1FF"/>
<path d="M8.15241 31.3781C8.28095 31.6086 8.66304 32.0545 9.18168 32.609C7.88604 32.843 5.40599 33.2274 4.83189 32.8619C4.04559 32.3616 0.519922 26.9062 0.591404 26.787C0.662885 26.6677 1.2107 25.4766 1.92551 24.7858C2.6352 24.0998 9.51697 22.2327 9.61153 22.207C8.84319 22.9981 6.87024 25.6888 6.87024 25.6888L8.59316 27.1713L6.60995 28.4532C6.60995 28.4532 7.57127 30.3364 8.15241 31.3781Z" stroke="black" stroke-width="0.259026" stroke-linecap="round" stroke-linejoin="round"/>
<path d="M11.4092 12.448C11.2415 12.2724 11.1046 12.0791 11.021 11.8681C10.5604 10.7091 12.0531 9.75608 12.8632 9.77179C13.6732 9.78781 14.0069 11.5188 14.0069 11.5188C14.0069 11.5188 14.1973 11.0742 14.2925 10.6453C14.388 10.2167 13.7049 7.97738 13.7049 7.97738C13.7049 7.97738 13.7527 7.77094 14.7214 7.86615C15.69 7.96135 17.3735 8.73963 18.549 8.64443C19.7241 8.54891 19.735 7.70427 19.735 7.70427C19.735 7.70427 20.2492 7.2725 20.6152 6.63718C21.0239 5.92813 21.2483 4.96586 20.3678 4.06833C19.5125 3.19613 18.7173 3.36185 17.9377 3.82375C17.2303 4.24303 16.5356 4.90688 15.8205 5.26044C15.7157 5.31237 15.6032 5.35692 15.4843 5.39571C13.8953 5.9182 11.1348 5.43513 9.97729 7.28404C9.86734 7.46002 9.77759 7.63503 9.70611 7.80941C8.97078 9.60446 10.1953 11.2925 11.4092 12.448Z" fill="#6D1249" stroke="black" stroke-width="0.259026" stroke-linecap="round" stroke-linejoin="round"/>
<path d="M12.0493 21.3806C12.075 21.2951 12.1 21.1995 12.124 21.0957C12.124 21.095 12.124 21.0944 12.1246 21.0938" stroke="black" stroke-width="0.259026" stroke-linecap="round" stroke-linejoin="round"/>
<path d="M22.6754 31.3781C22.5469 31.6086 22.1648 32.0545 21.6462 32.609C22.9418 32.843 25.4219 33.2274 25.996 32.8619C26.7822 32.3616 30.3079 26.9062 30.2364 26.787C30.165 26.6677 29.6171 25.4766 28.9023 24.7858C28.1926 24.0998 21.3109 22.2327 21.2163 22.207C21.9847 22.9981 23.9576 25.6888 23.9576 25.6888L22.2347 27.1713L24.2179 28.4532C24.2179 28.4532 23.2566 30.3364 22.6754 31.3781Z" fill="#4C70F5" stroke="black" stroke-width="0.259026" stroke-linecap="round" stroke-linejoin="round"/>
<path d="M22.6754 31.3781C22.5469 31.6086 22.1648 32.0545 21.6462 32.609C22.9418 32.843 25.4219 33.2274 25.996 32.8619C26.781 32.3622 30.298 26.9219 30.2368 26.7876C30.2368 26.7873 30.2364 26.7873 30.2364 26.787C30.165 26.6677 29.6171 25.4766 28.9023 24.7858C28.4811 24.3787 25.886 23.5556 23.8259 22.9485C22.4148 22.5321 21.2548 22.2176 21.2163 22.207C21.9847 22.9981 23.9576 25.6888 23.9576 25.6888L22.2347 27.1713L24.2179 28.4532C24.2179 28.4532 23.2566 30.3364 22.6754 31.3781Z" fill="#4C70F5" stroke="black" stroke-width="0.259026" stroke-linecap="round" stroke-linejoin="round"/>
<path d="M6.60986 28.4524C6.60986 28.4524 7.57118 30.3356 8.15233 31.3774C8.28086 31.6079 8.66295 32.0537 9.18159 32.6083C11.0061 34.5601 14.5161 37.8546 14.5629 37.8078C14.5985 37.7723 13.4397 33.0365 12.4762 28.8903C12.33 28.2607 12.188 27.6446 12.0556 27.0609C11.5918 25.0162 11.2427 23.3654 11.2174 22.9035C11.1446 21.5754 11.971 21.16 12.1239 21.0946C12.1309 21.0917 12.1367 21.0895 12.1405 21.0879C12.1367 21.0892 12.1312 21.0908 12.1245 21.0927C12.0082 21.1302 11.4767 21.303 10.9385 21.5068C10.4897 21.6771 10.0362 21.8687 9.81499 22.022C9.76403 22.0572 9.69479 22.1207 9.61145 22.2063C8.8431 22.9974 6.87015 25.688 6.87015 25.688L8.59307 27.1706L6.60986 28.4524Z" fill="#4C70F5" stroke="black" stroke-width="0.259026" stroke-linecap="round" stroke-linejoin="round"/>
<path d="M21.2148 22.207C21.2148 22.207 21.2154 22.207 21.2166 22.2076" stroke="black" stroke-width="0.259026" stroke-linecap="round" stroke-linejoin="round"/>
<path d="M13.9204 27.4995C13.9204 27.4995 14.5253 29.3397 14.8458 29.5176C15.1664 29.6958 16.1158 29.7314 16.211 29.6484C16.3059 29.5651 17.2618 27.8732 17.2618 27.8732C17.0076 27.6104 16.7502 27.3334 16.5252 27.0796C16.5252 27.0796 15.5584 27.3132 14.4426 26.9199C14.2855 27.101 14.107 27.2994 13.9204 27.4995Z" fill="#E86F3A" stroke="black" stroke-width="0.259026" stroke-linecap="round" stroke-linejoin="round"/>
<path d="M13.694 34.0501C13.7117 34.1238 15.4349 36.8379 15.591 36.8571C15.7471 36.8767 17.0005 34.6075 17.0005 34.6075L16.211 29.6484C16.1158 29.7314 15.1663 29.6958 14.8458 29.5176C14.8458 29.5176 13.6767 33.9767 13.694 34.0501Z" fill="#E86F3A" stroke="black" stroke-width="0.259026" stroke-linecap="round" stroke-linejoin="round"/>
<path d="M23.8257 22.9492C24.0885 23.1451 24.3719 23.3198 24.6104 23.497C25.1877 23.9266 25.7653 24.3564 26.3426 24.7863C26.9709 25.2536 27.5988 25.721 28.2271 26.1883C28.6557 26.5073 29.1134 26.8381 29.6452 26.8887C29.8433 26.9076 30.0516 26.8701 30.2366 26.7884C30.2366 26.7881 30.2363 26.7881 30.2363 26.7877C30.1648 26.6685 29.617 25.4774 28.9022 24.7866C28.481 24.3795 25.8858 23.5563 23.8257 22.9492Z" fill="#80A1FF"/>
<path d="M10.6089 23.8821C10.717 25.0636 11.2369 26.2031 12.0562 27.0609C11.5924 25.0162 11.2433 23.3654 11.218 22.9035C11.1452 21.5754 11.9716 21.16 12.1245 21.0946C12.1315 21.0917 12.1373 21.0895 12.1411 21.0879C12.1373 21.0892 12.1318 21.0908 12.1251 21.0927C12.0087 21.1302 11.4773 21.303 10.9391 21.5068C10.6522 22.2604 10.5352 23.0791 10.6089 23.8821Z" fill="#80A1FF"/>
<path d="M17.938 3.82375C17.9518 3.83722 17.9665 3.8494 17.9819 3.86062C18.1367 3.97505 18.3361 4.00614 18.5137 4.08115C18.9179 4.252 19.1872 4.64146 19.3695 5.04022C19.5523 5.4393 19.6721 5.86819 19.8965 6.24515C20.0222 6.45575 20.2139 6.66571 20.4591 6.66571C20.5139 6.66571 20.5658 6.65545 20.6155 6.63718C21.0242 5.92813 21.2486 4.96586 20.368 4.06833C19.5128 3.19613 18.7176 3.36185 17.938 3.82375Z" fill="#932A6E"/>
<path d="M9.70557 7.81019C9.74435 7.85442 9.78859 7.89385 9.83827 7.92687C10.1216 8.11471 10.5105 8.05124 10.8066 7.88391C11.1028 7.71659 11.3381 7.46176 11.6045 7.2502C12.0555 6.89215 12.6033 6.65719 13.1735 6.57705C13.5159 6.52897 13.8643 6.5357 14.207 6.4889C14.5496 6.44242 14.8984 6.33472 15.1487 6.09623C15.3401 5.91384 15.4581 5.65933 15.4837 5.39648C13.8948 5.91897 11.1342 5.43591 9.97675 7.28481C9.8668 7.46079 9.77705 7.63581 9.70557 7.81019Z" fill="#932A6E"/>
<path d="M6.60986 28.454C6.60986 28.454 7.57118 30.3372 8.15233 31.379C8.28086 31.6095 8.66295 32.0553 9.18159 32.6099C11.0061 34.5617 14.5161 37.8562 14.5629 37.8094C14.5985 37.7739 13.4397 33.0381 12.4762 28.8919C11.8174 26.0576 11.2501 23.4987 11.2174 22.9051C11.1446 21.577 11.971 21.1616 12.1239 21.0962C12.1341 21.0921 12.1412 21.0892 12.145 21.0879C12.1415 21.0892 12.1345 21.0914 12.1245 21.0943C11.911 21.1632 10.3009 21.687 9.81499 22.0236C9.76403 22.0588 9.69479 22.1223 9.61145 22.2079C8.8431 22.999 6.87015 25.6896 6.87015 25.6896L8.59307 27.1722L6.60986 28.454Z" stroke="black" stroke-width="0.259026" stroke-linecap="round" stroke-linejoin="round"/>
<path d="M22.6754 31.3781C22.5469 31.6086 22.1648 32.0545 21.6462 32.609C22.9418 32.843 25.4219 33.2274 25.996 32.8619C26.7822 32.3616 30.3079 26.9062 30.2364 26.787C30.165 26.6677 29.6171 25.4766 28.9023 24.7858C28.1926 24.0998 21.3109 22.2327 21.2163 22.207C21.9847 22.9981 23.9576 25.6888 23.9576 25.6888L22.2347 27.1713L24.2179 28.4532C24.2179 28.4532 23.2566 30.3364 22.6754 31.3781Z" stroke="black" stroke-width="0.259026" stroke-linecap="round" stroke-linejoin="round"/>
<path d="M21.1096 14.5311C21.2054 15.6094 21.1971 16.6973 21.0801 17.774C21.0439 18.11 20.9971 18.4497 21.0054 18.7857C21.3 18.7228 21.5808 18.6113 21.8401 18.4404C25.6232 15.9479 19.7357 7.70508 19.7357 7.70508C19.7357 7.70508 19.7299 8.14326 19.2876 8.42438C19.419 8.61543 19.5485 8.80038 19.6306 8.97796C20.4384 10.7256 20.9387 12.6136 21.1096 14.5311Z" fill="#F9DFDC"/>
<path d="M12.7173 15.5768C12.8147 15.4806 12.8785 15.3556 12.9404 15.2332C13.1 14.9168 13.2603 14.6011 13.4196 14.2847C13.5222 14.0811 13.6264 13.8606 13.4565 13.6606C13.3048 13.4821 13.0657 13.4349 12.8253 13.4695C12.8125 13.785 12.7772 14.5866 12.7173 15.5768Z" fill="#F09E8B"/>
<path d="M15.3162 16.6582C15.3162 16.6582 15.4935 20.3313 18.6925 20.699L18.7627 18.5562C18.7627 18.5562 16.0458 17.2631 15.3159 16.6582H15.3162Z" fill="#ED7D66"/>
<path d="M13.4682 11.784C13.4099 11.5394 13.2499 11.3477 13.0124 11.1708C12.7749 10.9939 12.3854 10.9083 12.0834 11.0227C11.9139 11.0871 11.7831 11.2279 11.8276 11.3634C11.8661 11.4814 12.0177 11.5583 12.1633 11.616C12.5957 11.7875 12.9278 11.8177 13.4191 11.8411" fill="#ED7D66"/>
<path d="M24.0103 25.7206C24.0103 25.7206 23.225 27.2698 22.7381 27.8025C22.2512 28.3349 24.1453 28.576 24.2145 28.8683C24.2835 29.1607 23.2673 34.0509 22.1877 34.7705C21.1081 35.4901 18.9746 33.7967 18.7794 33.5002C18.5842 33.2037 18.589 28.3772 18.7794 28.1654C18.9698 27.9538 20.7059 25.3285 20.8539 25.3074C21.002 25.2862 24.0103 25.7203 24.0103 25.7203V25.7206Z" fill="#2253DD"/>
<path d="M16.265 37.8094C16.3118 37.8562 19.8217 34.5617 21.6463 32.6099C22.1649 32.0553 22.547 31.6095 22.6755 31.379C23.2567 30.3372 24.218 28.454 24.218 28.454L22.2348 27.1722L23.9577 25.6896C23.9577 25.6896 21.9848 22.999 21.2164 22.2079C21.1331 22.1223 21.0638 22.0588 21.0129 22.0236C20.9853 22.0043 20.9542 21.9848 20.9199 21.9646C20.3872 21.6517 19.0944 21.2216 18.7601 21.1129C18.7181 21.0991 18.6915 21.0908 18.6828 21.0879C18.6912 21.0911 18.7168 21.101 18.7546 21.1199C18.9867 21.2363 19.6772 21.6863 19.6105 22.9051C19.58 23.4561 19.0893 25.6992 18.4924 28.2848C18.4459 28.4854 18.3991 28.688 18.3517 28.8919C17.3881 33.0381 16.2294 37.7739 16.265 37.8094Z" fill="#4C70F5" stroke="black" stroke-width="0.259026" stroke-linecap="round" stroke-linejoin="round"/>
<path d="M18.4917 28.2832C18.4933 28.2903 18.4946 28.2976 18.4962 28.3047C19.2382 27.3158 19.864 26.2699 20.3646 25.1826C20.6422 24.5793 20.8826 23.9597 20.975 23.3125C21.0384 22.8695 21.0304 22.4127 20.9192 21.963C20.3864 21.6502 19.0937 21.22 18.7594 21.1113C18.7574 21.1136 18.7555 21.1158 18.7539 21.1184C18.986 21.2347 19.6764 21.6848 19.6098 22.9035C19.5793 23.4545 19.0886 25.6977 18.4917 28.2832Z" fill="#80A1FF"/>
<path d="M16.265 37.8094C16.3118 37.8562 19.8217 34.5617 21.6463 32.6099C22.1649 32.0553 22.547 31.6095 22.6755 31.379C23.2567 30.3372 24.218 28.454 24.218 28.454L22.2348 27.1722L23.9577 25.6896C23.9577 25.6896 21.9848 22.999 21.2164 22.2079C21.1331 22.1223 21.0638 22.0588 21.0129 22.0236C20.5042 21.6713 18.7642 21.1139 18.6828 21.0879C18.7424 21.1103 19.6881 21.4886 19.6105 22.9051C19.5778 23.4987 19.0104 26.0576 18.3517 28.8919C17.3881 33.0381 16.2294 37.7739 16.265 37.8094Z" stroke="black" stroke-width="0.259026" stroke-linecap="round" stroke-linejoin="round"/>
<path d="M18.7634 18.5562C16.9847 17.9583 15.3774 16.6582 15.3774 16.6582" stroke="black" stroke-width="0.259026" stroke-linecap="round" stroke-linejoin="round"/>
<path d="M12.8296 13.3828C13.2364 13.5674 13.547 13.663 13.547 13.663" stroke="black" stroke-width="0.259026" stroke-linecap="round" stroke-linejoin="round"/>
<path d="M11.0219 11.869C11.1056 12.0799 11.2425 12.2732 11.4101 12.4488C11.8073 12.8642 12.3782 13.1787 12.8298 13.3835C12.8058 13.9836 12.5904 19.1024 12.1253 21.0946C12.1352 21.0917 12.1423 21.0894 12.1458 21.0881H12.1461C12.1461 21.0881 12.1474 21.0875 12.148 21.0875C12.1483 21.0875 12.1483 21.0872 12.1483 21.0872L12.1612 21.4754C12.1612 21.4754 15.0746 25.8688 15.0041 26.1742C14.9823 26.2682 14.7569 26.5592 14.4431 26.9211C15.5589 27.3144 16.5257 27.0807 16.5257 27.0807C16.1407 26.6467 15.8494 26.2816 15.8247 26.1742C15.7542 25.8688 18.6676 21.4754 18.6676 21.4754L18.6804 21.0872L18.7634 18.5562C19.8308 18.9149 20.9598 19.0206 21.8403 18.4404C25.6234 15.9479 19.736 7.70508 19.736 7.70508C19.736 7.70508 19.7251 8.54971 18.5499 8.64524C17.3745 8.74044 15.691 7.96215 14.7223 7.86695C13.7536 7.77175 13.7059 7.97818 13.7059 7.97818C13.7059 7.97818 14.389 10.2175 14.2934 10.6461C14.1982 11.075 14.0078 11.5196 14.0078 11.5196C14.0078 11.5196 13.6741 9.78862 12.8641 9.77259C12.0541 9.75689 10.5613 10.7099 11.0219 11.869Z" stroke="black" stroke-width="0.259026" stroke-linecap="round" stroke-linejoin="round"/>
<path d="M15.8237 26.1124C15.8484 26.2198 16.1397 26.5849 16.5247 27.0189C16.7497 27.2728 17.0071 27.5498 17.2613 27.8126C17.6848 28.2498 18.1012 28.6473 18.3509 28.8303C18.4515 28.3966 18.5502 27.9694 18.6451 27.5546C19.1708 25.2588 19.5821 23.3465 19.6096 22.8435C19.6872 21.427 18.7416 21.0488 18.682 21.0264C18.682 21.0264 18.6807 21.0257 18.6801 21.0257C18.6797 21.0257 18.6797 21.0254 18.6797 21.0254L18.6775 21.0972L18.6669 21.4136C18.6669 21.4136 15.7535 25.807 15.824 26.1124H15.8237Z" fill="#F5D256" stroke="black" stroke-width="0.259026" stroke-linecap="round" stroke-linejoin="round"/>
<path d="M11.2179 22.8435C11.2458 23.3477 11.659 25.2694 12.1866 27.5735C12.2802 27.9825 12.3773 28.4034 12.4767 28.8303C12.7966 28.5957 13.3896 28.0097 13.9207 27.4389C14.1073 27.2388 14.2858 27.0404 14.4429 26.8593C14.7567 26.4974 14.9821 26.2064 15.0039 26.1124C15.0744 25.807 12.1609 21.4136 12.1609 21.4136L12.1494 21.0651L12.1481 21.0254C12.1481 21.0254 12.1481 21.0257 12.1478 21.0257C12.1472 21.0257 12.1465 21.026 12.1459 21.0264H12.1456C12.1417 21.0276 12.1347 21.0305 12.1244 21.0347C11.9715 21.1001 11.1451 21.5155 11.2179 22.8435Z" fill="#F5D256" stroke="black" stroke-width="0.259026" stroke-linecap="round" stroke-linejoin="round"/>
<path d="M21.577 4.14453C21.9552 4.51604 22.0716 5.10328 21.9524 5.62C21.8331 6.13672 21.5052 6.58644 21.1106 6.94032C20.716 7.29421 20.2538 7.56346 19.7954 7.83016C20.2281 7.95389 20.8042 7.99716 21.2215 7.82919C21.6389 7.66123 21.9976 7.35094 22.2239 6.96212" stroke="black" stroke-width="0.259026" stroke-linecap="round" stroke-linejoin="round"/>
<path d="M11.4092 12.448C11.2416 12.2723 11.1047 12.079 11.021 11.8681C10.5604 10.709 12.0532 9.75606 12.8632 9.77176C13.6732 9.78779 14.0069 11.5187 14.0069 11.5187C14.0069 11.5187 14.1973 11.0741 14.2925 10.6452C14.388 10.2167 13.7049 7.97735 13.7049 7.97735C13.7049 7.97735 13.7527 7.77092 14.7214 7.86612C15.6901 7.96132 17.3736 8.73961 18.549 8.64441C19.7241 8.54888 19.735 7.70425 19.735 7.70425C19.735 7.70425 22.0372 5.7704 20.3678 4.06831C18.7362 2.40468 17.3233 4.51707 15.8205 5.26041C14.3178 6.00376 11.2217 5.29663 9.97733 7.28401C8.73297 9.27171 10.0777 11.1802 11.4092 12.448Z" stroke="black" stroke-width="0.259026" stroke-linecap="round" stroke-linejoin="round"/>
<path d="M11.2179 22.8435C11.2458 23.3477 11.659 25.2694 12.1866 27.5735C12.2904 27.5145 12.3738 27.4171 12.428 27.3094C12.5033 27.159 12.5296 26.9888 12.5482 26.8212C12.6386 25.9964 12.56 25.1537 12.319 24.3597C12.1427 23.7798 11.8802 23.2227 11.7872 22.6239C11.7026 22.0793 11.7882 21.4687 12.1494 21.0651L12.1481 21.0254C12.1481 21.0254 12.1481 21.0257 12.1478 21.0257C12.1472 21.0257 12.1465 21.026 12.1459 21.0264H12.1456C12.1417 21.0276 12.1347 21.0305 12.1244 21.0347C11.9715 21.1001 11.1451 21.5155 11.2179 22.8435Z" fill="#CEA625"/>
<path d="M18.6456 27.5546C19.1712 25.2588 19.5825 23.3465 19.6101 22.8435C19.6876 21.427 18.742 21.0488 18.6824 21.0264C18.6824 21.0264 18.6811 21.0257 18.6805 21.0257C18.6802 21.0257 18.6802 21.0254 18.6802 21.0254L18.6779 21.0972C18.9337 21.1728 19.1283 21.4155 19.1998 21.6777C19.2799 21.9732 19.2322 22.2877 19.1604 22.5852C19.0193 23.1676 18.7885 23.7231 18.5895 24.2882C18.3907 24.8533 18.2218 25.438 18.2119 26.0371C18.2029 26.5721 18.3333 27.1244 18.6459 27.5546H18.6456Z" fill="#CEA625"/>
<path d="M15.8237 26.173C15.8484 26.2804 16.1397 26.6455 16.5247 27.0795C16.7497 27.3334 17.0071 27.6103 17.2613 27.8732C17.6848 28.3104 18.1012 28.7079 18.3509 28.8909C19.0096 26.0566 19.577 23.4977 19.6096 22.9041C19.6872 21.4876 18.7416 21.1093 18.682 21.0869C18.682 21.0869 18.6807 21.0863 18.6801 21.0863C18.6797 21.0863 18.6797 21.0859 18.6797 21.0859L18.6669 21.4741C18.6669 21.4741 15.7535 25.8675 15.824 26.173H15.8237Z" stroke="black" stroke-width="0.259026" stroke-linecap="round" stroke-linejoin="round"/>
<path d="M11.2179 22.9041C11.2506 23.4977 11.818 26.0566 12.4767 28.8909C12.7966 28.6562 13.3896 28.0703 13.9207 27.4994C14.1073 27.2994 14.2858 27.101 14.4429 26.9199C14.7567 26.558 14.9821 26.2669 15.0039 26.173C15.0744 25.8675 12.1609 21.4741 12.1609 21.4741L12.1481 21.0859C12.1481 21.0859 12.1481 21.0863 12.1478 21.0863C12.1472 21.0863 12.1465 21.0863 12.1459 21.0869H12.1456C12.1417 21.0882 12.1347 21.0911 12.1244 21.0952C11.9715 21.1606 11.1451 21.5761 11.2179 22.9041Z" stroke="black" stroke-width="0.259026" stroke-linecap="round" stroke-linejoin="round"/>
<path d="M13.412 11.7468C13.1584 11.2557 12.6013 10.9384 12.0493 10.9711" stroke="black" stroke-width="0.259026" stroke-linecap="round" stroke-linejoin="round"/>
<path d="M12.8312 11.2754C12.6401 11.3488 12.4741 11.486 12.3657 11.6597" stroke="black" stroke-width="0.259026" stroke-linecap="round" stroke-linejoin="round"/>
<path d="M19.3115 15.4543C19.2409 15.4485 18.6511 15.7046 17.9889 15.1119C17.3266 14.5193 17.6049 13.8516 17.6049 13.8516" stroke="black" stroke-width="0.259026" stroke-linecap="round" stroke-linejoin="round"/>
<path d="M18.0376 13.8141C18.0376 13.8141 17.5821 13.6285 17.1978 14.1147" stroke="black" stroke-width="0.259026" stroke-linecap="round" stroke-linejoin="round"/>
<path d="M19.7843 12.1641C19.7843 12.1641 20.7257 13.6017 20.4568 13.8511C20.1878 14.1005 19.5288 13.6626 19.5288 13.6626" stroke="black" stroke-width="0.259026" stroke-linecap="round" stroke-linejoin="round"/>
</g>
<defs>
<clipPath id="clip0_1927_11297">
<rect width="32" height="32" rx="16" fill="white"/>
</clipPath>
</defs>
</svg>
