<svg width="146" height="43" viewBox="0 0 146 43" fill="none" xmlns="http://www.w3.org/2000/svg">
<rect width="145.367" height="42.1942" rx="21.0971" fill="#319F43" fill-opacity="0.2"/>
<path d="M23.144 26.3457C22.4897 26.3457 21.9062 26.2163 21.3936 25.9575C20.8809 25.6987 20.4683 25.3472 20.1558 24.9028C19.8481 24.4536 19.6675 23.9482 19.6138 23.3867L19.6064 23.3062H20.8735L20.8809 23.3647C20.9248 23.7017 21.0469 24.0093 21.2471 24.2876C21.4521 24.561 21.7183 24.7783 22.0454 24.9395C22.3774 25.1006 22.7485 25.1812 23.1587 25.1812C23.6274 25.1812 24.04 25.0786 24.3965 24.8735C24.7529 24.6636 25.0312 24.3755 25.2314 24.0093C25.4316 23.6431 25.5317 23.2231 25.5317 22.7495V22.7349C25.5317 22.2661 25.4292 21.8511 25.2241 21.4897C25.0239 21.1235 24.748 20.8379 24.3965 20.6328C24.0449 20.4277 23.6396 20.3252 23.1807 20.3252C22.8291 20.3252 22.5044 20.3789 22.2065 20.4863C21.9136 20.5938 21.6523 20.7549 21.4229 20.9697C21.3301 21.0576 21.2422 21.1528 21.1592 21.2554C21.0811 21.3579 21.0078 21.4727 20.9395 21.5996H19.7969L20.3535 15.5278H26.2349V16.707H21.3936L21.0347 20.2812H21.1519C21.3081 20.042 21.501 19.8418 21.7305 19.6807C21.96 19.5195 22.2163 19.3975 22.4995 19.3145C22.7876 19.2266 23.0903 19.1826 23.4077 19.1826C24.0718 19.1826 24.6602 19.3364 25.1729 19.644C25.6855 19.9468 26.0884 20.3643 26.3813 20.8965C26.6743 21.4238 26.8208 22.0293 26.8208 22.7129V22.7275C26.8208 23.4355 26.6621 24.063 26.3447 24.6099C26.0322 25.1519 25.6001 25.5767 25.0483 25.8843C24.4966 26.1919 23.8618 26.3457 23.144 26.3457ZM32.4824 26.3457C31.7012 26.3457 31.0322 26.1211 30.4756 25.6719C29.9238 25.2227 29.499 24.5854 29.2012 23.7603C28.9033 22.9302 28.7544 21.9487 28.7544 20.8159V20.8013C28.7544 19.6685 28.9033 18.6895 29.2012 17.8643C29.499 17.0391 29.9238 16.4019 30.4756 15.9526C31.0322 15.5034 31.7012 15.2788 32.4824 15.2788C33.2637 15.2788 33.9326 15.5034 34.4893 15.9526C35.0459 16.4019 35.4731 17.0391 35.771 17.8643C36.0737 18.6895 36.2251 19.6685 36.2251 20.8013V20.8159C36.2251 21.9487 36.0737 22.9302 35.771 23.7603C35.4731 24.5854 35.0459 25.2227 34.4893 25.6719C33.9326 26.1211 33.2637 26.3457 32.4824 26.3457ZM32.4824 25.1958C32.9902 25.1958 33.4224 25.0176 33.7788 24.6611C34.1401 24.3047 34.416 23.7993 34.6064 23.145C34.8018 22.4907 34.8994 21.7144 34.8994 20.8159V20.8013C34.8994 19.9028 34.8018 19.1289 34.6064 18.4795C34.416 17.8252 34.1401 17.3223 33.7788 16.9707C33.4224 16.6143 32.9902 16.436 32.4824 16.436C31.9795 16.436 31.5474 16.6143 31.186 16.9707C30.8296 17.3223 30.5562 17.8252 30.3657 18.4795C30.1753 19.1289 30.0801 19.9028 30.0801 20.8013V20.8159C30.0801 21.7144 30.1753 22.4907 30.3657 23.145C30.5562 23.7993 30.8296 24.3047 31.186 24.6611C31.5474 25.0176 31.9795 25.1958 32.4824 25.1958ZM40.3633 21.0869C39.9141 21.0869 39.5283 20.9722 39.2061 20.7427C38.8838 20.5083 38.6348 20.1787 38.459 19.7539C38.2881 19.3242 38.2026 18.8188 38.2026 18.2378V18.2305C38.2026 17.6445 38.2881 17.1392 38.459 16.7144C38.6348 16.2896 38.8838 15.9624 39.2061 15.7329C39.5283 15.5034 39.9141 15.3887 40.3633 15.3887C40.8125 15.3887 41.1982 15.5034 41.5205 15.7329C41.8477 15.9624 42.0967 16.2896 42.2676 16.7144C42.4434 17.1392 42.5312 17.6445 42.5312 18.2305V18.2378C42.5312 18.8188 42.4434 19.3242 42.2676 19.7539C42.0967 20.1787 41.8477 20.5083 41.5205 20.7427C41.1982 20.9722 40.8125 21.0869 40.3633 21.0869ZM40.3633 20.2153C40.7246 20.2153 41.0054 20.042 41.2056 19.6953C41.4106 19.3438 41.5132 18.8579 41.5132 18.2378V18.2305C41.5132 17.6104 41.4106 17.127 41.2056 16.7803C41.0054 16.4336 40.7246 16.2603 40.3633 16.2603C40.002 16.2603 39.7212 16.4336 39.521 16.7803C39.3208 17.127 39.2207 17.6104 39.2207 18.2305V18.2378C39.2207 18.8579 39.3208 19.3438 39.521 19.6953C39.7212 20.042 40.002 20.2153 40.3633 20.2153ZM41.1543 26.0967H39.9678L47.1602 15.5278H48.3467L41.1543 26.0967ZM47.9365 26.2358C47.4873 26.2358 47.1016 26.1211 46.7793 25.8916C46.457 25.6572 46.208 25.3276 46.0322 24.9028C45.8613 24.478 45.7759 23.9727 45.7759 23.3867V23.3794C45.7759 22.7935 45.8613 22.2881 46.0322 21.8633C46.208 21.4385 46.457 21.1113 46.7793 20.8818C47.1016 20.6523 47.4873 20.5376 47.9365 20.5376C48.3857 20.5376 48.7715 20.6523 49.0938 20.8818C49.4209 21.1113 49.6699 21.4385 49.8408 21.8633C50.0166 22.2881 50.1045 22.7935 50.1045 23.3794V23.3867C50.1045 23.9727 50.0166 24.478 49.8408 24.9028C49.6699 25.3276 49.4209 25.6572 49.0938 25.8916C48.7715 26.1211 48.3857 26.2358 47.9365 26.2358ZM47.9365 25.3643C48.2979 25.3643 48.5786 25.1909 48.7788 24.8442C48.9839 24.4927 49.0864 24.0068 49.0864 23.3867V23.3794C49.0864 22.7593 48.9839 22.2759 48.7788 21.9292C48.5786 21.5825 48.2979 21.4092 47.9365 21.4092C47.5752 21.4092 47.2944 21.5825 47.0942 21.9292C46.894 22.2759 46.7939 22.7593 46.7939 23.3794V23.3867C46.7939 24.0068 46.894 24.4927 47.0942 24.8442C47.2944 25.1909 47.5752 25.3643 47.9365 25.3643ZM56.5791 26.0967V15.0664H57.8535V19.3877H57.9707C58.1709 18.9678 58.459 18.6431 58.835 18.4136C59.2109 18.1792 59.6895 18.062 60.2705 18.062C60.8613 18.062 61.3618 18.1768 61.772 18.4062C62.1821 18.6309 62.4946 18.9604 62.7095 19.395C62.9243 19.8296 63.0317 20.3594 63.0317 20.9844V26.0967H61.7573V21.292C61.7573 20.5791 61.606 20.0518 61.3032 19.71C61.0054 19.3633 60.5415 19.1899 59.9116 19.1899C59.4917 19.1899 59.1279 19.2803 58.8203 19.4609C58.5127 19.6416 58.2734 19.8979 58.1025 20.23C57.9365 20.562 57.8535 20.96 57.8535 21.4238V26.0967H56.5791ZM67.9829 26.2358C67.3872 26.2358 66.8867 26.1235 66.4814 25.8989C66.0762 25.6694 65.771 25.3374 65.5659 24.9028C65.3657 24.4634 65.2656 23.9336 65.2656 23.3135V18.2012H66.54V23.0059C66.54 23.7139 66.6768 24.2412 66.9502 24.5879C67.2285 24.9346 67.6826 25.1079 68.3125 25.1079C68.6592 25.1079 68.9644 25.0566 69.228 24.9541C69.4966 24.8516 69.7212 24.7051 69.9019 24.5146C70.0825 24.3193 70.2168 24.085 70.3047 23.8115C70.3975 23.5332 70.4438 23.2207 70.4438 22.874V18.2012H71.7183V26.0967H70.4438V24.9175H70.3267C70.1997 25.1958 70.0264 25.4351 69.8066 25.6353C69.5869 25.8306 69.3232 25.9795 69.0156 26.082C68.7129 26.1846 68.3687 26.2358 67.9829 26.2358ZM74.0986 26.0967V18.2012H75.373V19.4023H75.4902C75.666 18.9775 75.9346 18.6479 76.2959 18.4136C76.6621 18.1792 77.104 18.062 77.6216 18.062C77.978 18.062 78.2979 18.1206 78.5811 18.2378C78.8643 18.355 79.1084 18.5186 79.3135 18.7285C79.5186 18.9336 79.6821 19.1729 79.8042 19.4463H79.9214C80.063 19.168 80.2534 18.9263 80.4927 18.7212C80.7319 18.5112 81.0078 18.3501 81.3203 18.2378C81.6377 18.1206 81.9771 18.062 82.3384 18.062C82.8755 18.062 83.3296 18.1621 83.7007 18.3623C84.0767 18.5625 84.3623 18.8555 84.5576 19.2412C84.7529 19.6221 84.8506 20.0884 84.8506 20.6401V26.0967H83.5762V20.9331C83.5762 20.5425 83.5151 20.2202 83.3931 19.9663C83.2759 19.7075 83.0952 19.5146 82.8511 19.3877C82.6069 19.2559 82.2993 19.1899 81.9282 19.1899C81.562 19.1899 81.2422 19.2729 80.9688 19.439C80.6953 19.605 80.4829 19.8271 80.3315 20.1055C80.1802 20.3789 80.1045 20.6841 80.1045 21.021V26.0967H78.8301V20.7354C78.8301 20.4229 78.7617 20.1519 78.625 19.9224C78.4932 19.688 78.3027 19.5073 78.0537 19.3804C77.8096 19.2534 77.5215 19.1899 77.1895 19.1899C76.8477 19.1899 76.5376 19.2803 76.2593 19.4609C75.9858 19.6416 75.7686 19.8857 75.6074 20.1934C75.4512 20.4961 75.373 20.833 75.373 21.2041V26.0967H74.0986ZM89.3184 26.2358C88.8203 26.2358 88.3711 26.1406 87.9707 25.9502C87.5752 25.7598 87.2603 25.4888 87.0259 25.1372C86.7964 24.7856 86.6816 24.3706 86.6816 23.8921V23.8774C86.6816 23.4087 86.7939 23.0083 87.0186 22.6763C87.2432 22.3394 87.5703 22.0757 88 21.8853C88.4297 21.6948 88.9497 21.5825 89.5601 21.5483L92.4604 21.3726V22.3906L89.7139 22.5664C89.1133 22.6006 88.6738 22.7251 88.3955 22.9399C88.1221 23.1548 87.9854 23.4575 87.9854 23.8481V23.8628C87.9854 24.2632 88.1367 24.5757 88.4395 24.8003C88.7422 25.02 89.123 25.1299 89.582 25.1299C90.0166 25.1299 90.4023 25.0444 90.7393 24.8735C91.0762 24.6978 91.3398 24.4609 91.5303 24.1631C91.7256 23.8652 91.8232 23.5283 91.8232 23.1523V20.6914C91.8232 20.2031 91.6743 19.832 91.3765 19.5781C91.0835 19.3193 90.6416 19.1899 90.0508 19.1899C89.5771 19.1899 89.189 19.2754 88.8862 19.4463C88.5835 19.6123 88.3809 19.8491 88.2783 20.1567L88.271 20.1787H86.9966L87.0039 20.1348C87.0723 19.7197 87.2432 19.3584 87.5166 19.0508C87.7949 18.7383 88.1538 18.4966 88.5933 18.3257C89.0327 18.1499 89.5332 18.062 90.0947 18.062C90.7393 18.062 91.2837 18.167 91.728 18.377C92.1772 18.5869 92.5166 18.8896 92.7461 19.2852C92.9805 19.6758 93.0977 20.1445 93.0977 20.6914V26.0967H91.8232V24.9321H91.7061C91.54 25.2104 91.3374 25.4473 91.0981 25.6426C90.8638 25.8379 90.5977 25.9868 90.2998 26.0894C90.002 26.187 89.6748 26.2358 89.3184 26.2358ZM95.4268 26.0967V18.2012H96.7012V19.3877H96.8184C97.0186 18.9678 97.3066 18.6431 97.6826 18.4136C98.0586 18.1792 98.5371 18.062 99.1182 18.062C100.007 18.062 100.688 18.3159 101.162 18.8237C101.64 19.3267 101.879 20.0469 101.879 20.9844V26.0967H100.605V21.292C100.605 20.5791 100.454 20.0518 100.151 19.71C99.853 19.3633 99.3892 19.1899 98.7593 19.1899C98.3394 19.1899 97.9756 19.2803 97.668 19.4609C97.3604 19.6416 97.1211 19.8979 96.9502 20.23C96.7842 20.562 96.7012 20.96 96.7012 21.4238V26.0967H95.4268Z" fill="#319F43"/>
<path fill-rule="evenodd" clip-rule="evenodd" d="M118.367 30.0967C119.549 30.0967 120.719 29.8639 121.811 29.4116C122.903 28.9593 123.895 28.2964 124.731 27.4606C125.566 26.6249 126.229 25.6328 126.682 24.5408C127.134 23.4489 127.367 22.2786 127.367 21.0967C127.367 19.9148 127.134 18.7445 126.682 17.6525C126.229 16.5606 125.566 15.5684 124.731 14.7327C123.895 13.897 122.903 13.2341 121.811 12.7818C120.719 12.3295 119.549 12.0967 118.367 12.0967C115.98 12.0967 113.691 13.0449 112.003 14.7327C110.315 16.4205 109.367 18.7097 109.367 21.0967C109.367 23.4836 110.315 25.7728 112.003 27.4606C113.691 29.1485 115.98 30.0967 118.367 30.0967ZM118.135 24.7367L123.135 18.7367L121.599 17.4567L117.299 22.6157L115.074 20.3897L113.66 21.8037L116.66 24.8037L117.434 25.5777L118.135 24.7367Z" fill="#319F43"/>
</svg>
