<svg width="173" height="43" viewBox="0 0 173 43" fill="none" xmlns="http://www.w3.org/2000/svg">
<rect width="172.367" height="42.1942" rx="21.0971" fill="#E33629" fill-opacity="0.15"/>
<rect x="0.318344" y="0.318344" width="171.73" height="41.5575" rx="20.7787" stroke="#E33629" stroke-opacity="0.21" stroke-width="0.636689"/>
<path d="M23.1689 26.2725C22.4414 26.2725 21.8066 26.1479 21.2646 25.8989C20.7227 25.6499 20.293 25.3081 19.9756 24.8735C19.6631 24.439 19.4824 23.9434 19.4336 23.3867L19.4263 23.2988H20.6934L20.7007 23.3721C20.7349 23.7188 20.8569 24.0239 21.0669 24.2876C21.2817 24.5513 21.5674 24.7588 21.9238 24.9102C22.2852 25.0566 22.7002 25.1299 23.1689 25.1299C23.6328 25.1299 24.0381 25.0493 24.3848 24.8882C24.7363 24.7271 25.0098 24.5049 25.2051 24.2217C25.4004 23.9336 25.498 23.604 25.498 23.2329V23.2183C25.498 22.5688 25.2808 22.0708 24.8462 21.7241C24.4165 21.3726 23.8306 21.1968 23.0884 21.1968H21.7627V20.0835H23.0298C23.4497 20.0835 23.8208 20.0054 24.1431 19.8491C24.4653 19.688 24.7168 19.4707 24.8975 19.1973C25.0781 18.9189 25.1685 18.604 25.1685 18.2524V18.2378C25.1685 17.8667 25.0903 17.5518 24.9341 17.293C24.7778 17.0342 24.5483 16.8364 24.2456 16.6997C23.9478 16.563 23.584 16.4946 23.1543 16.4946C22.7393 16.4946 22.3682 16.5654 22.041 16.707C21.7188 16.8438 21.46 17.0415 21.2646 17.3003C21.0693 17.5591 20.9521 17.8667 20.9131 18.2231L20.9058 18.2964H19.6387L19.646 18.2231C19.7046 17.647 19.8853 17.144 20.188 16.7144C20.4956 16.2847 20.9009 15.9502 21.4038 15.7109C21.9116 15.4717 22.4951 15.3521 23.1543 15.3521C23.8281 15.3521 24.4141 15.4692 24.9121 15.7036C25.415 15.9331 25.8032 16.2529 26.0767 16.6631C26.355 17.0684 26.4941 17.5396 26.4941 18.0767V18.0913C26.4941 18.5259 26.3989 18.9116 26.2085 19.2485C26.0181 19.5854 25.7544 19.8662 25.4175 20.0908C25.0806 20.3154 24.6924 20.4741 24.2529 20.5669V20.5962C25.0244 20.6597 25.647 20.9209 26.1206 21.3799C26.5991 21.834 26.8384 22.437 26.8384 23.189V23.2036C26.8384 23.7896 26.6797 24.3145 26.3623 24.7783C26.0449 25.2422 25.6104 25.6084 25.0586 25.877C24.5068 26.1406 23.877 26.2725 23.1689 26.2725ZM32.4487 26.3457C31.7944 26.3457 31.2109 26.2163 30.6982 25.9575C30.1855 25.6987 29.7729 25.3472 29.4604 24.9028C29.1528 24.4536 28.9722 23.9482 28.9185 23.3867L28.9111 23.3062H30.1782L30.1855 23.3647C30.2295 23.7017 30.3516 24.0093 30.5518 24.2876C30.7568 24.561 31.0229 24.7783 31.3501 24.9395C31.6821 25.1006 32.0532 25.1812 32.4634 25.1812C32.9321 25.1812 33.3447 25.0786 33.7012 24.8735C34.0576 24.6636 34.3359 24.3755 34.5361 24.0093C34.7363 23.6431 34.8364 23.2231 34.8364 22.7495V22.7349C34.8364 22.2661 34.7339 21.8511 34.5288 21.4897C34.3286 21.1235 34.0527 20.8379 33.7012 20.6328C33.3496 20.4277 32.9443 20.3252 32.4854 20.3252C32.1338 20.3252 31.8091 20.3789 31.5112 20.4863C31.2183 20.5938 30.957 20.7549 30.7275 20.9697C30.6348 21.0576 30.5469 21.1528 30.4639 21.2554C30.3857 21.3579 30.3125 21.4727 30.2441 21.5996H29.1016L29.6582 15.5278H35.5396V16.707H30.6982L30.3394 20.2812H30.4565C30.6128 20.042 30.8057 19.8418 31.0352 19.6807C31.2646 19.5195 31.521 19.3975 31.8042 19.3145C32.0923 19.2266 32.395 19.1826 32.7124 19.1826C33.3765 19.1826 33.9648 19.3364 34.4775 19.644C34.9902 19.9468 35.3931 20.3643 35.686 20.8965C35.979 21.4238 36.1255 22.0293 36.1255 22.7129V22.7275C36.1255 23.4355 35.9668 24.063 35.6494 24.6099C35.3369 25.1519 34.9048 25.5767 34.353 25.8843C33.8013 26.1919 33.1665 26.3457 32.4487 26.3457ZM40.2197 21.0869C39.7705 21.0869 39.3848 20.9722 39.0625 20.7427C38.7402 20.5083 38.4912 20.1787 38.3154 19.7539C38.1445 19.3242 38.0591 18.8188 38.0591 18.2378V18.2305C38.0591 17.6445 38.1445 17.1392 38.3154 16.7144C38.4912 16.2896 38.7402 15.9624 39.0625 15.7329C39.3848 15.5034 39.7705 15.3887 40.2197 15.3887C40.6689 15.3887 41.0547 15.5034 41.377 15.7329C41.7041 15.9624 41.9531 16.2896 42.124 16.7144C42.2998 17.1392 42.3877 17.6445 42.3877 18.2305V18.2378C42.3877 18.8188 42.2998 19.3242 42.124 19.7539C41.9531 20.1787 41.7041 20.5083 41.377 20.7427C41.0547 20.9722 40.6689 21.0869 40.2197 21.0869ZM40.2197 20.2153C40.5811 20.2153 40.8618 20.042 41.062 19.6953C41.2671 19.3438 41.3696 18.8579 41.3696 18.2378V18.2305C41.3696 17.6104 41.2671 17.127 41.062 16.7803C40.8618 16.4336 40.5811 16.2603 40.2197 16.2603C39.8584 16.2603 39.5776 16.4336 39.3774 16.7803C39.1772 17.127 39.0771 17.6104 39.0771 18.2305V18.2378C39.0771 18.8579 39.1772 19.3438 39.3774 19.6953C39.5776 20.042 39.8584 20.2153 40.2197 20.2153ZM41.0107 26.0967H39.8242L47.0166 15.5278H48.2031L41.0107 26.0967ZM47.793 26.2358C47.3438 26.2358 46.958 26.1211 46.6357 25.8916C46.3135 25.6572 46.0645 25.3276 45.8887 24.9028C45.7178 24.478 45.6323 23.9727 45.6323 23.3867V23.3794C45.6323 22.7935 45.7178 22.2881 45.8887 21.8633C46.0645 21.4385 46.3135 21.1113 46.6357 20.8818C46.958 20.6523 47.3438 20.5376 47.793 20.5376C48.2422 20.5376 48.6279 20.6523 48.9502 20.8818C49.2773 21.1113 49.5264 21.4385 49.6973 21.8633C49.873 22.2881 49.9609 22.7935 49.9609 23.3794V23.3867C49.9609 23.9727 49.873 24.478 49.6973 24.9028C49.5264 25.3276 49.2773 25.6572 48.9502 25.8916C48.6279 26.1211 48.2422 26.2358 47.793 26.2358ZM47.793 25.3643C48.1543 25.3643 48.4351 25.1909 48.6353 24.8442C48.8403 24.4927 48.9429 24.0068 48.9429 23.3867V23.3794C48.9429 22.7593 48.8403 22.2759 48.6353 21.9292C48.4351 21.5825 48.1543 21.4092 47.793 21.4092C47.4316 21.4092 47.1509 21.5825 46.9507 21.9292C46.7505 22.2759 46.6504 22.7593 46.6504 23.3794V23.3867C46.6504 24.0068 46.7505 24.4927 46.9507 24.8442C47.1509 25.1909 47.4316 25.3643 47.793 25.3643ZM55.6812 26.0967L59.5776 15.5278H60.5884V17.2344H60.1709L57.0654 26.0967H55.6812ZM57.4463 23.0718L57.8564 21.9512H62.6318L63.042 23.0718H57.4463ZM63.3936 26.0967L60.2881 17.2344V15.5278H60.8813L64.7778 26.0967H63.3936ZM66.6309 26.0967V15.5278H67.9492V26.0967H66.6309ZM79.1187 26.3457C78.1616 26.3457 77.334 26.1211 76.6357 25.6719C75.9375 25.2227 75.3979 24.5854 75.0171 23.7603C74.6411 22.9351 74.4531 21.9561 74.4531 20.8232V20.8086C74.4531 19.6709 74.6411 18.6895 75.0171 17.8643C75.3979 17.0391 75.9351 16.4019 76.6284 15.9526C77.3267 15.5034 78.1543 15.2788 79.1113 15.2788C79.8535 15.2788 80.5273 15.4253 81.1328 15.7183C81.7432 16.0063 82.2461 16.4092 82.6416 16.9268C83.0371 17.4395 83.2861 18.0327 83.3887 18.7065L83.3813 18.7212H82.0557L82.0483 18.7065C81.9312 18.2524 81.7334 17.8618 81.4551 17.5347C81.1768 17.2026 80.8374 16.9463 80.437 16.7656C80.0415 16.585 79.5996 16.4946 79.1113 16.4946C78.4375 16.4946 77.8516 16.6704 77.3535 17.022C76.8604 17.3735 76.4795 17.8716 76.2109 18.5161C75.9424 19.1606 75.8081 19.9248 75.8081 20.8086V20.8232C75.8081 21.7021 75.9424 22.4639 76.2109 23.1084C76.4795 23.7529 76.8604 24.251 77.3535 24.6025C77.8516 24.9541 78.4399 25.1299 79.1187 25.1299C79.6118 25.1299 80.0586 25.0518 80.459 24.8955C80.8594 24.7344 81.1963 24.5073 81.4697 24.2144C81.7432 23.9165 81.9336 23.5649 82.041 23.1597L82.0557 23.145H83.3887V23.1597C83.2715 23.8042 83.0176 24.3657 82.627 24.8442C82.2363 25.3179 81.7407 25.6865 81.1401 25.9502C80.5444 26.2139 79.8706 26.3457 79.1187 26.3457ZM88.6841 26.2358C87.937 26.2358 87.29 26.0723 86.7432 25.7451C86.2012 25.4131 85.7812 24.9419 85.4834 24.3315C85.1904 23.7212 85.0439 22.9961 85.0439 22.1562V22.1416C85.0439 21.2969 85.1904 20.5693 85.4834 19.959C85.7812 19.3486 86.2012 18.8799 86.7432 18.5527C87.29 18.2256 87.937 18.062 88.6841 18.062C89.436 18.062 90.083 18.2256 90.625 18.5527C91.167 18.8799 91.5845 19.3486 91.8774 19.959C92.1753 20.5693 92.3242 21.2969 92.3242 22.1416V22.1562C92.3242 22.9961 92.1753 23.7212 91.8774 24.3315C91.5845 24.9419 91.167 25.4131 90.625 25.7451C90.083 26.0723 89.436 26.2358 88.6841 26.2358ZM88.6841 25.1079C89.1821 25.1079 89.6045 24.9907 89.9512 24.7563C90.2979 24.522 90.5615 24.1851 90.7422 23.7456C90.9277 23.3062 91.0205 22.7764 91.0205 22.1562V22.1416C91.0205 21.5166 90.9277 20.9844 90.7422 20.5449C90.5615 20.1055 90.2979 19.771 89.9512 19.5415C89.6045 19.3071 89.1821 19.1899 88.6841 19.1899C88.186 19.1899 87.7637 19.3071 87.417 19.5415C87.0703 19.771 86.8042 20.1055 86.6187 20.5449C86.438 20.9844 86.3477 21.5166 86.3477 22.1416V22.1562C86.3477 22.7764 86.438 23.3062 86.6187 23.7456C86.8042 24.1851 87.0703 24.522 87.417 24.7563C87.7637 24.9907 88.186 25.1079 88.6841 25.1079ZM94.3018 26.0967V18.2012H95.5762V19.3877H95.6934C95.8936 18.9678 96.1816 18.6431 96.5576 18.4136C96.9336 18.1792 97.4121 18.062 97.9932 18.062C98.8818 18.062 99.563 18.3159 100.037 18.8237C100.515 19.3267 100.754 20.0469 100.754 20.9844V26.0967H99.48V21.292C99.48 20.5791 99.3286 20.0518 99.0259 19.71C98.728 19.3633 98.2642 19.1899 97.6343 19.1899C97.2144 19.1899 96.8506 19.2803 96.543 19.4609C96.2354 19.6416 95.9961 19.8979 95.8252 20.23C95.6592 20.562 95.5762 20.96 95.5762 21.4238V26.0967H94.3018ZM105.867 26.1553C105.056 26.1553 104.468 25.9917 104.102 25.6646C103.74 25.3374 103.56 24.7979 103.56 24.0459V19.2559H102.314V18.2012H103.56V16.1577H104.878V18.2012H106.606V19.2559H104.878V23.7236C104.878 24.1875 104.966 24.522 105.142 24.7271C105.317 24.9272 105.61 25.0273 106.021 25.0273C106.133 25.0273 106.228 25.0249 106.306 25.02C106.389 25.0151 106.489 25.0078 106.606 24.998V26.082C106.484 26.1016 106.362 26.1187 106.24 26.1333C106.118 26.1479 105.994 26.1553 105.867 26.1553ZM111.631 26.2358C110.879 26.2358 110.232 26.0698 109.69 25.7378C109.153 25.4058 108.738 24.937 108.445 24.3315C108.157 23.7212 108.013 23.0034 108.013 22.1782V22.1709C108.013 21.3555 108.157 20.6401 108.445 20.0249C108.738 19.4097 109.15 18.9287 109.683 18.582C110.215 18.2354 110.837 18.062 111.55 18.062C112.268 18.062 112.883 18.228 113.396 18.5601C113.914 18.8921 114.309 19.356 114.583 19.9517C114.861 20.5425 115 21.231 115 22.0171V22.5151H108.672V21.4971H114.348L113.718 22.4272V21.9219C113.718 21.3018 113.625 20.7915 113.44 20.3911C113.254 19.9907 112.998 19.6929 112.671 19.4976C112.344 19.2974 111.968 19.1973 111.543 19.1973C111.118 19.1973 110.737 19.3022 110.4 19.5122C110.068 19.7173 109.805 20.0225 109.609 20.4277C109.414 20.833 109.316 21.3311 109.316 21.9219V22.4272C109.316 22.9888 109.412 23.4697 109.602 23.8701C109.792 24.2656 110.063 24.5708 110.415 24.7856C110.767 24.9956 111.182 25.1006 111.66 25.1006C112.017 25.1006 112.327 25.0518 112.59 24.9541C112.854 24.8564 113.071 24.7319 113.242 24.5806C113.413 24.4292 113.533 24.2754 113.601 24.1191L113.63 24.0532H114.905L114.89 24.1118C114.822 24.3804 114.7 24.6416 114.524 24.8955C114.353 25.1445 114.131 25.3716 113.857 25.5767C113.584 25.7769 113.259 25.938 112.883 26.0601C112.512 26.1772 112.095 26.2358 111.631 26.2358ZM116.978 26.0967V18.2012H118.252V19.3877H118.369C118.569 18.9678 118.857 18.6431 119.233 18.4136C119.609 18.1792 120.088 18.062 120.669 18.062C121.558 18.062 122.239 18.3159 122.712 18.8237C123.191 19.3267 123.43 20.0469 123.43 20.9844V26.0967H122.156V21.292C122.156 20.5791 122.004 20.0518 121.702 19.71C121.404 19.3633 120.94 19.1899 120.31 19.1899C119.89 19.1899 119.526 19.2803 119.219 19.4609C118.911 19.6416 118.672 19.8979 118.501 20.23C118.335 20.562 118.252 20.96 118.252 21.4238V26.0967H116.978ZM128.542 26.1553C127.732 26.1553 127.144 25.9917 126.777 25.6646C126.416 25.3374 126.235 24.7979 126.235 24.0459V19.2559H124.99V18.2012H126.235V16.1577H127.554V18.2012H129.282V19.2559H127.554V23.7236C127.554 24.1875 127.642 24.522 127.817 24.7271C127.993 24.9272 128.286 25.0273 128.696 25.0273C128.809 25.0273 128.904 25.0249 128.982 25.02C129.065 25.0151 129.165 25.0078 129.282 24.998V26.082C129.16 26.1016 129.038 26.1187 128.916 26.1333C128.794 26.1479 128.669 26.1553 128.542 26.1553Z" fill="#E33629"/>
<path d="M154.218 25.8789L149.434 21.0959L154.216 16.3134C154.264 16.2663 154.301 16.2104 154.326 16.1488C154.352 16.0873 154.365 16.0213 154.365 15.9547C154.365 15.8881 154.352 15.8221 154.326 15.7606C154.301 15.699 154.264 15.6431 154.216 15.596L150.867 12.2453C150.771 12.1501 150.642 12.0967 150.508 12.0967C150.373 12.0967 150.244 12.1501 150.149 12.2453L145.366 17.0278L140.584 12.2453C140.394 12.0548 140.057 12.0548 139.866 12.2453L136.516 15.5955C136.421 15.6907 136.367 15.8198 136.367 15.9543C136.367 16.0889 136.421 16.2179 136.516 16.3132L141.298 21.0959L136.515 25.8791C136.42 25.9744 136.367 26.1034 136.367 26.238C136.367 26.3725 136.42 26.5015 136.515 26.5968L139.865 29.9472C139.912 29.9944 139.968 30.0318 140.03 30.0574C140.091 30.0829 140.157 30.0961 140.224 30.0961C140.291 30.0961 140.357 30.0829 140.418 30.0574C140.48 30.0318 140.536 29.9944 140.583 29.9472L145.366 25.164L150.15 29.947C150.249 30.0459 150.378 30.0957 150.508 30.0957C150.639 30.0957 150.768 30.0459 150.868 29.947L154.218 26.5965C154.313 26.5013 154.367 26.3722 154.367 26.2377C154.367 26.1031 154.313 25.974 154.218 25.8789Z" fill="#E33629"/>
</svg>
