<svg width="22" height="22" viewBox="0 0 22 22" fill="none" xmlns="http://www.w3.org/2000/svg">
<path d="M14.2749 8.08348C14.336 8.14456 14.3845 8.21709 14.4176 8.29692C14.4507 8.37675 14.4677 8.46232 14.4677 8.54874C14.4677 8.63516 14.4507 8.72074 14.4176 8.80057C14.3845 8.8804 14.336 8.95293 14.2749 9.014L9.67161 13.6173C9.61054 13.6784 9.53801 13.7269 9.45818 13.76C9.37835 13.7931 9.29278 13.8101 9.20636 13.8101C9.11994 13.8101 9.03436 13.7931 8.95453 13.76C8.8747 13.7269 8.80217 13.6784 8.7411 13.6173L6.76827 11.6444C6.64488 11.521 6.57556 11.3537 6.57556 11.1792C6.57556 11.0047 6.64488 10.8373 6.76827 10.7139C6.89166 10.5905 7.05902 10.5212 7.23353 10.5212C7.40804 10.5212 7.57539 10.5905 7.69879 10.7139L9.20636 12.2223L13.3444 8.08348C13.4054 8.02234 13.478 7.97384 13.5578 7.94074C13.6376 7.90765 13.7232 7.89062 13.8096 7.89062C13.896 7.89062 13.9816 7.90765 14.0614 7.94074C14.1413 7.97384 14.2138 8.02234 14.2749 8.08348ZM19.0705 10.5216C19.0705 12.2124 18.5691 13.8652 17.6297 15.2711C16.6904 16.677 15.3552 17.7727 13.7931 18.4197C12.231 19.0668 10.5121 19.2361 8.85376 18.9062C7.19544 18.5764 5.67217 17.7622 4.47658 16.5666C3.28099 15.371 2.46679 13.8477 2.13693 12.1894C1.80706 10.5311 1.97636 8.81215 2.62341 7.25004C3.27045 5.68793 4.36619 4.35277 5.77205 3.41341C7.17791 2.47404 8.83076 1.97266 10.5216 1.97266C12.7882 1.97505 14.9612 2.8765 16.5639 4.47922C18.1666 6.08193 19.0681 8.25499 19.0705 10.5216ZM17.7553 10.5216C17.7553 9.09088 17.331 7.69232 16.5362 6.50274C15.7413 5.31317 14.6116 4.38601 13.2898 3.83851C11.968 3.291 10.5135 3.14775 9.11035 3.42687C7.70715 3.70598 6.41823 4.39492 5.40658 5.40657C4.39493 6.41822 3.70598 7.70715 3.42687 9.11035C3.14776 10.5135 3.29101 11.968 3.83851 13.2898C4.38601 14.6116 5.31317 15.7413 6.50275 16.5362C7.69232 17.331 9.09088 17.7553 10.5216 17.7553C12.4394 17.7531 14.2781 16.9903 15.6342 15.6342C16.9903 14.2781 17.7531 12.4394 17.7553 10.5216Z" fill="#319F43"/>
</svg>
