<svg width="32" height="32" viewBox="0 0 32 32" fill="none" xmlns="http://www.w3.org/2000/svg">
<path d="M9.22667 9.27369L7.26667 7.29636M19.6787 9.27369L21.6387 7.29636M7.26533 21.803L9.22533 19.8244M14.452 6.63769V3.99902M6.612 14.5497H4M22.5 22.447L27.5853 20.439C27.708 20.3899 27.8132 20.3052 27.8873 20.1958C27.9614 20.0863 28.001 19.9572 28.001 19.825C28.001 19.6929 27.9614 19.5637 27.8873 19.4543C27.8132 19.3449 27.708 19.2601 27.5853 19.211L15.3653 14.391C15.2464 14.345 15.1166 14.3346 14.9918 14.3612C14.867 14.3878 14.7527 14.4502 14.6629 14.5408C14.5731 14.6313 14.5116 14.7461 14.4859 14.8711C14.4603 14.996 14.4717 15.1258 14.5187 15.2444L19.2947 27.579C19.5107 28.139 20.2947 28.139 20.5107 27.579L22.5 22.447Z" stroke="black" stroke-width="2" stroke-linecap="round" stroke-linejoin="round"/>
</svg>
