<svg width="20" height="20" viewBox="0 0 20 20" fill="none" xmlns="http://www.w3.org/2000/svg">
<path d="M9.99935 5C5.85768 5 1.66602 6.28833 1.66602 8.75V12.0833C1.66602 14.545 5.85768 15.8333 9.99935 15.8333C14.141 15.8333 18.3327 14.545 18.3327 12.0833V8.75C18.3327 6.28833 14.141 5 9.99935 5ZM3.33268 12.0833V11.0858C3.86047 11.3847 4.41934 11.625 4.99935 11.8025V13.37C3.90602 12.9417 3.33268 12.4317 3.33268 12.0833ZM13.3327 12.2067V13.8492C12.6102 13.9983 11.7768 14.1075 10.8327 14.1475V12.4808C11.6714 12.4474 12.5067 12.3558 13.3327 12.2067ZM9.16602 14.1483C8.32602 14.1162 7.48999 14.0164 6.66602 13.85V12.2075C7.46518 12.3525 8.30935 12.4467 9.16602 12.4825V14.1483ZM14.9993 13.37V11.8025C15.5795 11.6254 16.1384 11.3851 16.666 11.0858V12.0833C16.666 12.4317 16.0935 12.9417 14.9993 13.37ZM9.99935 10.8333C5.68518 10.8333 3.33268 9.4575 3.33268 8.75C3.33268 8.0425 5.68518 6.66667 9.99935 6.66667C14.3135 6.66667 16.666 8.0425 16.666 8.75C16.666 9.4575 14.3135 10.8333 9.99935 10.8333Z" fill="#F89500"/>
</svg>
