<svg width="24" height="24" viewBox="0 0 24 24" fill="none" xmlns="http://www.w3.org/2000/svg">
<path d="M22.0013 5.70951V15.2895C22.0013 18.0495 19.7613 20.2895 17.0013 20.2895H7.00129C6.54129 20.2895 6.10129 20.2295 5.67129 20.1095C5.05129 19.9395 4.85129 19.1495 5.31129 18.6895L15.9413 8.05951C16.1613 7.83951 16.4913 7.78951 16.8013 7.84951C17.1213 7.90951 17.4713 7.81951 17.7213 7.57951L20.2913 4.99951C21.2313 4.05951 22.0013 4.36951 22.0013 5.70951Z" fill="black"/>
<path d="M14.641 7.35953L4.17098 17.8295C3.69098 18.3095 2.89098 18.1895 2.57098 17.5895C2.20098 16.9095 2.00098 16.1195 2.00098 15.2895V5.70953C2.00098 4.36953 2.77098 4.05953 3.71098 4.99953L6.29098 7.58953C6.68098 7.96953 7.32098 7.96953 7.71098 7.58953L11.291 3.99953C11.681 3.60953 12.321 3.60953 12.711 3.99953L14.651 5.93953C15.031 6.32953 15.031 6.96953 14.641 7.35953Z" fill="black"/>
</svg>
