<svg width="48" height="48" viewBox="0 0 48 48" fill="none" xmlns="http://www.w3.org/2000/svg">
<path fill-rule="evenodd" clip-rule="evenodd" d="M28.5078 9.5H31.5078V12.5C31.5078 12.8978 31.6658 13.2794 31.9472 13.5607C32.2285 13.842 32.61 14 33.0078 14C33.4056 14 33.7872 13.842 34.0685 13.5607C34.3498 13.2794 34.5078 12.8978 34.5078 12.5V9.5H37.5078C37.9056 9.5 38.2872 9.34196 38.5685 9.06066C38.8498 8.77936 39.0078 8.39782 39.0078 8C39.0078 7.60218 38.8498 7.22064 38.5685 6.93934C38.2872 6.65804 37.9056 6.5 37.5078 6.5H34.5078V3.5C34.5078 3.10218 34.3498 2.72064 34.0685 2.43934C33.7872 2.15804 33.4056 2 33.0078 2C32.61 2 32.2285 2.15804 31.9472 2.43934C31.6658 2.72064 31.5078 3.10218 31.5078 3.5V6.5H28.5078C28.11 6.5 27.7285 6.65804 27.4472 6.93934C27.1658 7.22064 27.0078 7.60218 27.0078 8C27.0078 8.39782 27.1658 8.77936 27.4472 9.06066C27.7285 9.34196 28.11 9.5 28.5078 9.5ZM39.0076 27.4998C39.0114 28.1114 38.8256 28.7091 38.4757 29.2108C38.1259 29.7124 37.6291 30.0933 37.0539 30.3011L27.3826 33.8748L23.8201 43.5536C23.6092 44.1267 23.2275 44.6213 22.7265 44.9707C22.2256 45.3201 21.6296 45.5074 21.0189 45.5074C20.4081 45.5074 19.8121 45.3201 19.3112 44.9707C18.8103 44.6213 18.4286 44.1267 18.2176 43.5536L14.6326 33.8748L4.95387 30.3123C4.38074 30.1013 3.88611 29.7197 3.53672 29.2187C3.18733 28.7178 3 28.1218 3 27.5111C3 26.9003 3.18733 26.3043 3.53672 25.8034C3.88611 25.3025 4.38074 24.9208 4.95387 24.7098L14.6326 21.1248L18.1951 11.4461C18.4061 10.8729 18.7878 10.3783 19.2887 10.0289C19.7896 9.67952 20.3856 9.49219 20.9964 9.49219C21.6071 9.49219 22.2031 9.67952 22.704 10.0289C23.205 10.3783 23.5867 10.8729 23.7976 11.4461L27.3826 21.1248L37.0614 24.6873C37.637 24.8969 38.1334 25.2801 38.4821 25.7838C38.8307 26.2876 39.0143 26.8872 39.0076 27.4998ZM43.5 15H45C45.3978 15 45.7794 15.158 46.0607 15.4393C46.342 15.7206 46.5 16.1022 46.5 16.5C46.5 16.8978 46.342 17.2794 46.0607 17.5607C45.7794 17.842 45.3978 18 45 18H43.5V19.5C43.5 19.8978 43.342 20.2794 43.0607 20.5607C42.7794 20.842 42.3978 21 42 21C41.6022 21 41.2206 20.842 40.9393 20.5607C40.658 20.2794 40.5 19.8978 40.5 19.5V18H39C38.6022 18 38.2206 17.842 37.9393 17.5607C37.658 17.2794 37.5 16.8978 37.5 16.5C37.5 16.1022 37.658 15.7206 37.9393 15.4393C38.2206 15.158 38.6022 15 39 15H40.5V13.5C40.5 13.1022 40.658 12.7206 40.9393 12.4393C41.2206 12.158 41.6022 12 42 12C42.3978 12 42.7794 12.158 43.0607 12.4393C43.342 12.7206 43.5 13.1022 43.5 13.5V15Z" fill="url(#paint0_linear_1927_3088)"/>
<defs>
<linearGradient id="paint0_linear_1927_3088" x1="24.75" y1="2" x2="24.75" y2="45.5074" gradientUnits="userSpaceOnUse">
<stop stop-color="#FF73C3"/>
<stop offset="0.5" stop-color="#7B71FF"/>
<stop offset="1" stop-color="#0EC9E2"/>
</linearGradient>
</defs>
</svg>
