<svg width="32" height="32" viewBox="0 0 32 32" fill="none" xmlns="http://www.w3.org/2000/svg">
<g clip-path="url(#clip0_1927_3781)">
<path d="M6.33105 18.9393C7.07579 17.9404 8.04386 17.1295 9.15791 16.5715C10.2719 16.0135 11.5011 15.7238 12.7471 15.7256C14.6168 15.7256 16.3356 16.3656 17.6979 17.4399" stroke="black" stroke-width="2.28571" stroke-linecap="round" stroke-linejoin="round"/>
<path d="M11.6021 24.2946H3.60212C2.99591 24.2946 2.41453 24.0538 1.98588 23.6252C1.55722 23.1965 1.31641 22.6151 1.31641 22.0089V3.72321C1.31641 3.11701 1.55722 2.53562 1.98588 2.10697C2.41453 1.67832 2.99591 1.4375 3.60212 1.4375H21.8878C22.494 1.4375 23.0754 1.67832 23.5041 2.10697C23.9327 2.53562 24.1736 3.11701 24.1736 3.72321V10.5804" stroke="black" stroke-width="2.28571" stroke-linecap="round" stroke-linejoin="round"/>
<path d="M12.745 12.2946C13.1952 12.2946 13.6411 12.206 14.057 12.0337C14.473 11.8614 14.851 11.6088 15.1693 11.2904C15.4877 10.9721 15.7403 10.5941 15.9126 10.1781C16.0849 9.76216 16.1735 9.31632 16.1735 8.86607C16.1735 8.41583 16.0849 7.96999 15.9126 7.55401C15.7403 7.13804 15.4877 6.76008 15.1693 6.44171C14.851 6.12333 14.473 5.87079 14.057 5.69848C13.6411 5.52618 13.1952 5.4375 12.745 5.4375C11.8357 5.4375 10.9636 5.79872 10.3206 6.44171C9.67763 7.08469 9.31641 7.95676 9.31641 8.86607C9.31641 9.77539 9.67763 10.6475 10.3206 11.2904C10.9636 11.9334 11.8357 12.2946 12.745 12.2946ZM16.777 24.1438C15.9747 24.0044 15.9747 22.8524 16.777 22.7129C18.1975 22.4657 19.5122 21.801 20.5536 20.8037C21.5949 19.8063 22.3156 18.5215 22.6238 17.1129L22.6718 16.8912C22.8455 16.0981 23.9747 16.0935 24.1553 16.8844L24.2147 17.1426C24.5348 18.5448 25.262 19.8212 26.3051 20.8114C27.3482 21.8016 28.6606 22.4616 30.0776 22.7084C30.8844 22.8501 30.8844 24.0066 30.0776 24.1484C28.6605 24.3949 27.348 25.0547 26.3048 26.045C25.2617 27.0353 24.5345 28.3118 24.2147 29.7141L24.1553 29.9724C23.9747 30.7632 22.8455 30.7586 22.6718 29.9655L22.6238 29.7438C22.3156 28.3352 21.5949 27.0504 20.5536 26.053C19.5122 25.0557 18.1975 24.391 16.777 24.1438Z" stroke="black" stroke-width="2.28571" stroke-linecap="round" stroke-linejoin="round"/>
</g>
<defs>
<clipPath id="clip0_1927_3781">
<rect width="32" height="32" fill="white"/>
</clipPath>
</defs>
</svg>
