<svg width="25" height="25" viewBox="0 0 25 25" fill="none" xmlns="http://www.w3.org/2000/svg">
<path d="M0 1.76133C0 0.789133 0.813911 0 1.81723 0H22.7711C23.7748 0 24.5883 0.789133 24.5883 1.76133V22.8273C24.5883 23.7998 23.7748 24.5884 22.7711 24.5884H1.81723C0.814008 24.5884 0 23.7999 0 22.8276V1.76105V1.76133Z" fill="black"/>
<path d="M7.47197 20.5779V9.50813H3.79256V20.5779H7.47235H7.47197ZM5.63303 7.997C6.91585 7.997 7.71449 7.14697 7.71449 6.08468C7.69048 4.99818 6.91585 4.17188 5.65743 4.17188C4.39814 4.17188 3.57568 4.99818 3.57568 6.08458C3.57568 7.14688 4.37404 7.9969 5.60893 7.9969H5.63275L5.63303 7.997ZM9.50857 20.5779H13.1877V14.3967C13.1877 14.0663 13.2117 13.735 13.3089 13.499C13.5748 12.8377 14.1802 12.1532 15.1968 12.1532C16.5279 12.1532 17.0606 13.1682 17.0606 14.6565V20.5779H20.7397V14.2308C20.7397 10.8308 18.9247 9.24861 16.504 9.24861C14.5194 9.24861 13.6478 10.3579 13.1635 11.1134H13.188V9.50851H9.50877C9.55679 10.547 9.50848 20.5783 9.50848 20.5783L9.50857 20.5779Z" fill="#FAFAFA"/>
</svg>
