<svg width="32" height="32" viewBox="0 0 32 32" fill="none" xmlns="http://www.w3.org/2000/svg">
<path d="M16.0005 2.33301C19.1281 2.33318 21.6665 4.87239 21.6665 8V11.666H24.0005C24.4422 11.6661 24.8658 11.842 25.1782 12.1543C25.4908 12.4669 25.6665 12.891 25.6665 13.333V16.3418C25.5569 16.3367 25.4459 16.333 25.3335 16.333C25.2211 16.333 25.1101 16.3367 25.0005 16.3418V12.333H7.00049V27.666H16.6489C16.7097 27.8924 16.7794 28.1147 16.8569 28.333H8.00049C7.55846 28.333 7.13434 28.1573 6.82178 27.8447C6.50922 27.5322 6.3335 27.108 6.3335 26.666V13.333C6.3335 12.4053 7.07277 11.666 8.00049 11.666H10.3335V8C10.3335 4.87228 12.8728 2.33301 16.0005 2.33301ZM28.6509 22.9336L23.6978 27.8867L21.3843 25.3623L21.5464 25.2002L23.6665 27.3203L28.3813 22.6055L28.6509 22.9336ZM16.0005 18.333C16.4423 18.3331 16.8658 18.5089 17.1782 18.8213C17.4908 19.1339 17.6665 19.558 17.6665 20C17.6663 20.9275 16.9279 21.6658 16.0005 21.666C15.5585 21.666 15.1343 21.4903 14.8218 21.1777C14.5094 20.8653 14.3336 20.4418 14.3335 20C14.3335 19.0723 15.0728 18.333 16.0005 18.333ZM16.0005 3C13.2349 3 11.0005 5.23438 11.0005 8V11.666H21.0005V8C21.0005 5.23449 18.766 3.00018 16.0005 3Z" stroke="black" stroke-width="2"/>
</svg>
