<svg width="180" height="180" viewBox="0 0 180 180" fill="none" xmlns="http://www.w3.org/2000/svg">
<g opacity="0.8" filter="url(#filter0_dd_1927_3280)">
<rect x="30.1001" y="26.0996" width="119" height="119" rx="32" fill="white"/>
<path d="M112.548 87.3625L94.5045 80.6951L87.8581 62.638C87.4645 61.5688 86.7524 60.6459 85.8179 59.9941C84.8834 59.3423 83.7714 58.9928 82.632 58.9928C81.4926 58.9928 80.3806 59.3423 79.4461 59.9941C78.5115 60.6459 77.7994 61.5688 77.4058 62.638L70.7175 80.6951L52.6604 87.3415C51.5911 87.7351 50.6683 88.4472 50.0165 89.3817C49.3646 90.3163 49.0151 91.4282 49.0151 92.5677C49.0151 93.7071 49.3646 94.819 50.0165 95.7536C50.6683 96.6881 51.5911 97.4002 52.6604 97.7938L70.7175 104.482L77.3639 122.539C77.7575 123.609 78.4696 124.531 79.4041 125.183C80.3386 125.835 81.4506 126.185 82.59 126.185C83.7294 126.185 84.8414 125.835 85.7759 125.183C86.7105 124.531 87.4226 123.609 87.8162 122.539L94.5045 104.482L112.562 97.8358C113.631 97.4422 114.554 96.7301 115.206 95.7956C115.857 94.861 116.207 93.749 116.207 92.6096C116.207 91.4702 115.857 90.3582 115.206 89.4237C114.554 88.4892 113.631 87.7771 112.562 87.3835L112.548 87.3625ZM91.3562 99.6618C90.9764 99.8018 90.6314 100.023 90.3451 100.309C90.0589 100.595 89.8381 100.94 89.6981 101.32L82.611 120.521L75.5379 101.334C75.3981 100.95 75.176 100.601 74.8871 100.313C74.5982 100.024 74.2496 99.8015 73.8658 99.6618L54.6788 92.5886L73.8658 85.5155C74.2496 85.3757 74.5982 85.1536 74.8871 84.8647C75.176 84.5759 75.3981 84.2273 75.5379 83.8434L82.611 64.6564L89.6841 83.8434C89.8241 84.2233 90.0449 84.5682 90.3311 84.8545C90.6174 85.1408 90.9624 85.3615 91.3422 85.5015L110.543 92.5886L91.3562 99.6618ZM93.8049 56.2085C93.8049 55.4663 94.0997 54.7545 94.6245 54.2297C95.1493 53.7049 95.8611 53.4101 96.6034 53.4101H102.2V47.8131C102.2 47.0709 102.495 46.3591 103.02 45.8343C103.545 45.3095 104.257 45.0146 104.999 45.0146C105.741 45.0146 106.453 45.3095 106.978 45.8343C107.502 46.3591 107.797 47.0709 107.797 47.8131V53.4101H113.394C114.136 53.4101 114.848 53.7049 115.373 54.2297C115.898 54.7545 116.193 55.4663 116.193 56.2085C116.193 56.9507 115.898 57.6625 115.373 58.1873C114.848 58.7122 114.136 59.007 113.394 59.007H107.797V64.6039C107.797 65.3461 107.502 66.0579 106.978 66.5828C106.453 67.1076 105.741 67.4024 104.999 67.4024C104.257 67.4024 103.545 67.1076 103.02 66.5828C102.495 66.0579 102.2 65.3461 102.2 64.6039V59.007H96.6034C95.8611 59.007 95.1493 58.7122 94.6245 58.1873C94.0997 57.6625 93.8049 56.9507 93.8049 56.2085ZM130.185 72.9993C130.185 73.7416 129.89 74.4534 129.365 74.9782C128.841 75.503 128.129 75.7978 127.387 75.7978H124.588V78.5963C124.588 79.3385 124.293 80.0503 123.768 80.5751C123.244 81.0999 122.532 81.3948 121.79 81.3948C121.047 81.3948 120.336 81.0999 119.811 80.5751C119.286 80.0503 118.991 79.3385 118.991 78.5963V75.7978H116.193C115.45 75.7978 114.739 75.503 114.214 74.9782C113.689 74.4534 113.394 73.7416 113.394 72.9993C113.394 72.2571 113.689 71.5453 114.214 71.0205C114.739 70.4957 115.45 70.2009 116.193 70.2009H118.991V67.4024C118.991 66.6602 119.286 65.9484 119.811 65.4236C120.336 64.8988 121.047 64.6039 121.79 64.6039C122.532 64.6039 123.244 64.8988 123.768 65.4236C124.293 65.9484 124.588 66.6602 124.588 67.4024V70.2009H127.387C128.129 70.2009 128.841 70.4957 129.365 71.0205C129.89 71.5453 130.185 72.2571 130.185 72.9993Z" fill="url(#paint0_linear_1927_3280)"/>
<path d="M112.548 87.3625L94.5045 80.6951L87.8581 62.638C87.4645 61.5688 86.7524 60.6459 85.8179 59.9941C84.8834 59.3423 83.7714 58.9928 82.632 58.9928C81.4926 58.9928 80.3806 59.3423 79.4461 59.9941C78.5115 60.6459 77.7994 61.5688 77.4058 62.638L70.7175 80.6951L52.6604 87.3415C51.5911 87.7351 50.6683 88.4472 50.0165 89.3817C49.3646 90.3163 49.0151 91.4282 49.0151 92.5677C49.0151 93.7071 49.3646 94.819 50.0165 95.7536C50.6683 96.6881 51.5911 97.4002 52.6604 97.7938L70.7175 104.482L77.3639 122.539C77.7575 123.609 78.4696 124.531 79.4041 125.183C80.3386 125.835 81.4506 126.185 82.59 126.185C83.7294 126.185 84.8414 125.835 85.7759 125.183C86.7105 124.531 87.4226 123.609 87.8162 122.539L94.5045 104.482L112.562 97.8358C113.631 97.4422 114.554 96.7301 115.206 95.7956C115.857 94.861 116.207 93.749 116.207 92.6096C116.207 91.4702 115.857 90.3582 115.206 89.4237C114.554 88.4892 113.631 87.7771 112.562 87.3835L112.548 87.3625ZM91.3562 99.6618C90.9764 99.8018 90.6314 100.023 90.3451 100.309C90.0589 100.595 89.8381 100.94 89.6981 101.32L82.611 120.521L75.5379 101.334C75.3981 100.95 75.176 100.601 74.8871 100.313C74.5982 100.024 74.2496 99.8015 73.8658 99.6618L54.6788 92.5886L73.8658 85.5155C74.2496 85.3757 74.5982 85.1536 74.8871 84.8647C75.176 84.5759 75.3981 84.2273 75.5379 83.8434L82.611 64.6564L89.6841 83.8434C89.8241 84.2233 90.0449 84.5682 90.3311 84.8545C90.6174 85.1408 90.9624 85.3615 91.3422 85.5015L110.543 92.5886L91.3562 99.6618ZM93.8049 56.2085C93.8049 55.4663 94.0997 54.7545 94.6245 54.2297C95.1493 53.7049 95.8611 53.4101 96.6034 53.4101H102.2V47.8131C102.2 47.0709 102.495 46.3591 103.02 45.8343C103.545 45.3095 104.257 45.0146 104.999 45.0146C105.741 45.0146 106.453 45.3095 106.978 45.8343C107.502 46.3591 107.797 47.0709 107.797 47.8131V53.4101H113.394C114.136 53.4101 114.848 53.7049 115.373 54.2297C115.898 54.7545 116.193 55.4663 116.193 56.2085C116.193 56.9507 115.898 57.6625 115.373 58.1873C114.848 58.7122 114.136 59.007 113.394 59.007H107.797V64.6039C107.797 65.3461 107.502 66.0579 106.978 66.5828C106.453 67.1076 105.741 67.4024 104.999 67.4024C104.257 67.4024 103.545 67.1076 103.02 66.5828C102.495 66.0579 102.2 65.3461 102.2 64.6039V59.007H96.6034C95.8611 59.007 95.1493 58.7122 94.6245 58.1873C94.0997 57.6625 93.8049 56.9507 93.8049 56.2085ZM130.185 72.9993C130.185 73.7416 129.89 74.4534 129.365 74.9782C128.841 75.503 128.129 75.7978 127.387 75.7978H124.588V78.5963C124.588 79.3385 124.293 80.0503 123.768 80.5751C123.244 81.0999 122.532 81.3948 121.79 81.3948C121.047 81.3948 120.336 81.0999 119.811 80.5751C119.286 80.0503 118.991 79.3385 118.991 78.5963V75.7978H116.193C115.45 75.7978 114.739 75.503 114.214 74.9782C113.689 74.4534 113.394 73.7416 113.394 72.9993C113.394 72.2571 113.689 71.5453 114.214 71.0205C114.739 70.4957 115.45 70.2009 116.193 70.2009H118.991V67.4024C118.991 66.6602 119.286 65.9484 119.811 65.4236C120.336 64.8988 121.047 64.6039 121.79 64.6039C122.532 64.6039 123.244 64.8988 123.768 65.4236C124.293 65.9484 124.588 66.6602 124.588 67.4024V70.2009H127.387C128.129 70.2009 128.841 70.4957 129.365 71.0205C129.89 71.5453 130.185 72.2571 130.185 72.9993Z" fill="url(#paint1_linear_1927_3280)"/>
</g>
<defs>
<filter id="filter0_dd_1927_3280" x="9.72748e-05" y="-0.000391006" width="179.2" height="179.2" filterUnits="userSpaceOnUse" color-interpolation-filters="sRGB">
<feFlood flood-opacity="0" result="BackgroundImageFix"/>
<feColorMatrix in="SourceAlpha" type="matrix" values="0 0 0 0 0 0 0 0 0 0 0 0 0 0 0 0 0 0 127 0" result="hardAlpha"/>
<feMorphology radius="1" operator="dilate" in="SourceAlpha" result="effect1_dropShadow_1927_3280"/>
<feOffset/>
<feComposite in2="hardAlpha" operator="out"/>
<feColorMatrix type="matrix" values="0 0 0 0 0 0 0 0 0 0 0 0 0 0 0 0 0 0 0.05 0"/>
<feBlend mode="normal" in2="BackgroundImageFix" result="effect1_dropShadow_1927_3280"/>
<feColorMatrix in="SourceAlpha" type="matrix" values="0 0 0 0 0 0 0 0 0 0 0 0 0 0 0 0 0 0 127 0" result="hardAlpha"/>
<feOffset dy="4"/>
<feGaussianBlur stdDeviation="15.05"/>
<feComposite in2="hardAlpha" operator="out"/>
<feColorMatrix type="matrix" values="0 0 0 0 0.508253 0 0 0 0 0.55805 0 0 0 0 0.686097 0 0 0 0.18 0"/>
<feBlend mode="normal" in2="effect1_dropShadow_1927_3280" result="effect2_dropShadow_1927_3280"/>
<feBlend mode="normal" in="SourceGraphic" in2="effect2_dropShadow_1927_3280" result="shape"/>
</filter>
<linearGradient id="paint0_linear_1927_3280" x1="89.6001" y1="68.072" x2="58.3522" y2="123.768" gradientUnits="userSpaceOnUse">
<stop stop-color="#FF0062"/>
<stop offset="0.934189" stop-color="#FE9286"/>
</linearGradient>
<linearGradient id="paint1_linear_1927_3280" x1="89.6001" y1="45.0146" x2="89.6001" y2="126.185" gradientUnits="userSpaceOnUse">
<stop stop-color="#FF73C3"/>
<stop offset="0.5" stop-color="#7B71FF"/>
<stop offset="1" stop-color="#0EC9E2"/>
</linearGradient>
</defs>
</svg>
