<svg width="22" height="22" viewBox="0 0 22 22" fill="none" xmlns="http://www.w3.org/2000/svg">
<path d="M18.9514 6.46283C18.9597 6.65292 18.9597 6.83436 18.9597 7.02444C18.968 12.7873 14.734 19.4402 6.99109 19.4402C4.70738 19.4402 2.46535 18.7576 0.540039 17.4789C0.873427 17.5221 1.20681 17.5394 1.5402 17.5394C3.43218 17.5394 5.27414 16.8827 6.76605 15.6645C4.96576 15.6299 3.38217 14.4117 2.83208 12.6318C3.46551 12.7614 4.11562 12.7355 4.73239 12.5541C2.77374 12.1566 1.36517 10.3681 1.35684 8.28588C1.35684 8.2686 1.35684 8.25132 1.35684 8.23404C1.94027 8.571 2.59871 8.76108 3.26548 8.77836C1.42352 7.49964 0.848423 4.95083 1.96527 2.95498C4.10729 5.68523 7.2578 7.33548 10.6417 7.51692C10.3 6.00491 10.7667 4.41515 11.8585 3.34378C13.5505 1.69354 16.2176 1.77994 17.8178 3.53387C18.7597 3.34378 19.6681 2.9809 20.4933 2.47114C20.1766 3.48203 19.5181 4.33739 18.643 4.88171C19.4764 4.77803 20.2932 4.54475 21.06 4.19915C20.4933 5.08043 19.7765 5.84075 18.9514 6.46283Z" fill="#181B01"/>
</svg>
